<svg width="500" height="500" id="puzzle" class="small" style="overflow:auto;">

<g id="columns">

<!-- * 13: 13, 26, 39, 52, 65, 78, 91, 104, 117, 130, 143, 156, 169 -->
<!-- 9 TOP-->

<text x="182" y="156" text-anchor="end">7
<tspan x="182" y="143">2</tspan>
<tspan x="182" y="130">1</tspan>
<tspan x="182" y="117">1</tspan>
<tspan x="182" y="104">7</tspan>
</text>

<text x="195" y="130" text-anchor="end">1
<tspan x="195" y="117">1</tspan>
<tspan x="195" y="104">2</tspan>
<tspan x="195" y="91">2</tspan>
<tspan x="195" y="78">1</tspan>
<tspan x="195" y="65">1</tspan>
</text>

<text x="208" y="130" text-anchor="end">1
<tspan x="208" y="117">3</tspan>
<tspan x="208" y="104">1</tspan>
<tspan x="208" y="91">3</tspan>
<tspan x="208" y="78">1</tspan>
<tspan x="208" y="65">3</tspan>
<tspan x="208" y="52">1</tspan>
<tspan x="208" y="39">3</tspan>
<tspan x="208" y="26">1</tspan>
</text>

<text x="169" y="-5" text-anchor="end">1
<tspan x="169" y="8">3</tspan>
<tspan x="169" y="21">1</tspan>
<tspan x="169" y="34">1</tspan>
<tspan x="169" y="47">5</tspan>
<tspan x="169" y="47">1</tspan>
<tspan x="169" y="47">3</tspan>
<tspan x="169" y="47">1</tspan>
</text>

<text x="169" y="-5" text-anchor="end">1
<tspan x="169" y="8">3</tspan>
<tspan x="169" y="21">1</tspan>
<tspan x="169" y="34">1</tspan>
<tspan x="169" y="47">4</tspan>
<tspan x="169" y="47">1</tspan>
<tspan x="169" y="47">3</tspan>
<tspan x="169" y="47">1</tspan>
</text>

<text x="169" y="-5" text-anchor="end">1
<tspan x="169" y="8">1</tspan>
<tspan x="169" y="21">1</tspan>
<tspan x="169" y="34">2</tspan>
<tspan x="169" y="47">1</tspan>
<tspan x="169" y="47">1</tspan>
</text>

<text x="169" y="-5" text-anchor="end">7
<tspan x="169" y="8">1</tspan>
<tspan x="169" y="21">1</tspan>
<tspan x="169" y="34">1</tspan>
<tspan x="169" y="47">1</tspan>
<tspan x="169" y="47">1</tspan>
<tspan x="169" y="47">7</tspan>
</text>

<text x="169" y="-5" text-anchor="end">1
<tspan x="169" y="8">1</tspan>
<tspan x="169" y="21">3</tspan>
</text>

<text x="169" y="-5" text-anchor="end">2
<tspan x="169" y="8">1</tspan>
<tspan x="169" y="21">2</tspan>
<tspan x="169" y="34">1</tspan>
<tspan x="169" y="47">8</tspan>
<tspan x="169" y="47">2</tspan>
<tspan x="169" y="47">1</tspan>
</text>

<text x="169" y="-5" text-anchor="end">2
<tspan x="169" y="8">2</tspan>
<tspan x="169" y="21">1</tspan>
<tspan x="169" y="34">2</tspan>
<tspan x="169" y="47">1</tspan>
<tspan x="169" y="47">1</tspan>
<tspan x="169" y="47">1</tspan>
<tspan x="169" y="47">2</tspan>
</text>

<text x="169" y="-5" text-anchor="end">1
<tspan x="169" y="8">7</tspan>
<tspan x="169" y="21">3</tspan>
<tspan x="169" y="34">2</tspan>
<tspan x="169" y="47">1</tspan>
</text>

<text x="169" y="-5" text-anchor="end">1
<tspan x="169" y="8">2</tspan>
<tspan x="169" y="21">3</tspan>
<tspan x="169" y="34">1</tspan>
<tspan x="169" y="47">1</tspan>
<tspan x="169" y="47">1</tspan>
<tspan x="169" y="47">1</tspan>
<tspan x="169" y="47">1</tspan>
</text>

<text x="169" y="-5" text-anchor="end">4
<tspan x="169" y="8">1</tspan>
<tspan x="169" y="21">1</tspan>
<tspan x="169" y="34">2</tspan>
<tspan x="169" y="47">6</tspan>
</text>

<text x="169" y="-5" text-anchor="end">3
<tspan x="169" y="8">3</tspan>
<tspan x="169" y="21">1</tspan>
<tspan x="169" y="34">1</tspan>
<tspan x="169" y="47">1</tspan>
<tspan x="169" y="47">3</tspan>
<tspan x="169" y="47">1</tspan>
</text>

<text x="169" y="-5" text-anchor="end">1
<tspan x="169" y="8">2</tspan>
<tspan x="169" y="21">5</tspan>
<tspan x="169" y="34">2</tspan>
<tspan x="169" y="47">2</tspan>
</text>

<text x="169" y="-5" text-anchor="end">2
<tspan x="169" y="8">2</tspan>
<tspan x="169" y="21">1</tspan>
<tspan x="169" y="34">1</tspan>
<tspan x="169" y="47">1</tspan>
<tspan x="169" y="47">1</tspan>
<tspan x="169" y="47">1</tspan>
<tspan x="169" y="47">2</tspan>
<tspan x="169" y="47">1</tspan>
</text>

<text x="169" y="-5" text-anchor="end">1
<tspan x="169" y="8">3</tspan>
<tspan x="169" y="21">3</tspan>
<tspan x="169" y="34">2</tspan>
<tspan x="169" y="47">1</tspan>
<tspan x="169" y="47">8</tspan>
<tspan x="169" y="47">1</tspan>
</text>

<text x="169" y="-5" text-anchor="end">6
<tspan x="169" y="8">2</tspan>
<tspan x="169" y="21">1</tspan>
</text>

<text x="169" y="-5" text-anchor="end">7
<tspan x="169" y="8">1</tspan>
<tspan x="169" y="21">4</tspan>
<tspan x="169" y="34">1</tspan>
<tspan x="169" y="47">1</tspan>
<tspan x="169" y="47">3</tspan>
</text>

<text x="169" y="-5" text-anchor="end">1
<tspan x="169" y="8">1</tspan>
<tspan x="169" y="21">1</tspan>
<tspan x="169" y="34">1</tspan>
<tspan x="169" y="47">4</tspan>
</text>

<text x="169" y="-5" text-anchor="end">1
<tspan x="169" y="8">3</tspan>
<tspan x="169" y="21">1</tspan>
<tspan x="169" y="34">3</tspan>
<tspan x="169" y="47">7</tspan>
<tspan x="169" y="47">1</tspan>
</text>

<text x="169" y="-5" text-anchor="end">1
<tspan x="169" y="8">3</tspan>
<tspan x="169" y="21">1</tspan>
<tspan x="169" y="34">1</tspan>
<tspan x="169" y="47">1</tspan>
<tspan x="169" y="47">2</tspan>
<tspan x="169" y="47">1</tspan>
<tspan x="169" y="47">1</tspan>
<tspan x="169" y="47">4</tspan>
</text>

<text x="169" y="-5" text-anchor="end">1
<tspan x="169" y="8">3</tspan>
<tspan x="169" y="21">1</tspan>
<tspan x="169" y="34">4</tspan>
<tspan x="169" y="47">3</tspan>
<tspan x="169" y="47">3</tspan>
</text>

<text x="156" y="-5" text-anchor="end">1
<tspan x="156" y="8">1</tspan>
<tspan x="156" y="21">2</tspan>
<tspan x="156" y="34">2</tspan>
<tspan x="156" y="47">2</tspan>
<tspan x="156" y="47">6</tspan>
<tspan x="156" y="47">1</tspan>
</text>

<text x="169" y="-5" text-anchor="end">7
<tspan x="169" y="8">1</tspan>
<tspan x="169" y="21">3</tspan>
<tspan x="169" y="34">2</tspan>
<tspan x="169" y="47">1</tspan>
<tspan x="169" y="47">1</tspan>
</text>
</g>
<!-- * 13: 13, 26, 39, 52, 65, 78, 91, 104, 117, 130, 143, 156, 169 -->
<!-- 9 LEFT -->

<g id="rows">
<text text-anchor="end" class="wday" dx="169" dy="169">7 3 1 1 7</text>
<text text-anchor="end" class="wday" dx="169" dy="182">1 1 2 2 1 1</text>
<text text-anchor="end" class="wday" dx="169" dy="195">1 3 1 3 1 1 3 1</text>
<text text-anchor="end" class="wday" dx="169" dy="208">1 3 1 1 6 1 3 1</text>
<text text-anchor="end" class="wday" dx="169" dy="221">1 3 1 5 2 1 3 1</text>
<text text-anchor="end" class="wday" dx="169" dy="234">1 1 2 1 1</text>
<text text-anchor="end" class="wday" dx="169" dy="247">7 1 1 1 1 1 7</text>
<text text-anchor="end" class="wday" dx="169" dy="260">3 3</text>
<text text-anchor="end" class="wday" dx="169" dy="273">1 2 3 1 1 3 1 1 2</text>
<text text-anchor="end" class="wday" dx="169" dy="286">1 1 3 2 1 1</text>
<text text-anchor="end" class="wday" dx="169" dy="299">4 1 4 2 1 2</text>
<text text-anchor="end" class="wday" dx="169" dy="312">1 1 1 1 1 4 1 3</text>
<text text-anchor="end" class="wday" dx="169" dy="325">2 1 1 1 2 5</text>
<text text-anchor="end" class="wday" dx="169" dy="338">3 2 2 6 3 1</text>
<text text-anchor="end" class="wday" dx="169" dy="351">1 9 1 1 2 1</text>
<text text-anchor="end" class="wday" dx="169" dy="364">2 1 2 2 3 1</text>
<text text-anchor="end" class="wday" dx="169" dy="377">3 1 1 1 1 5 1</text>
<text text-anchor="end" class="wday" dx="169" dy="390">1 2 2 5</text>
<text text-anchor="end" class="wday" dx="169" dy="403">7 1 2 1 1 1 3</text>
<text text-anchor="end" class="wday" dx="169" dy="416">1 1 2 1 2 2 1</text>
<text text-anchor="end" class="wday" dx="169" dy="429">1 3 1 4 5 1</text>
<text text-anchor="end" class="wday" dx="169" dy="442">1 3 1 3 10 2</text>
<text text-anchor="end" class="wday" dx="169" dy="455">1 3 1 1 6 6</text>
<text text-anchor="end" class="wday" dx="169" dy="468">1 1 2 1 1 2</text>
<text text-anchor="end" class="wday" dx="169" dy="481">7 2 1 2 5</text>
</g>

<g id="grid">
</g>

</svg>

